<svg width="28" height="28" viewBox="0 0 28 28" fill="none" xmlns="http://www.w3.org/2000/svg">
<g clip-path="url(#clip0_3_4)">
<path d="M22.1667 3.50001H14.5507C14.3702 3.5012 14.1919 3.4613 14.0292 3.38334L10.3472 1.53534C9.86112 1.29331 9.32564 1.16712 8.78267 1.16667H5.83333C4.28681 1.16852 2.80415 1.7837 1.71059 2.87726C0.617029 3.97082 0.0018525 5.45348 0 7.00001L0 21C0.0018525 22.5465 0.617029 24.0292 1.71059 25.1228C2.80415 26.2163 4.28681 26.8315 5.83333 26.8333H22.1667C23.7132 26.8315 25.1958 26.2163 26.2894 25.1228C27.383 24.0292 27.9981 22.5465 28 21V9.33334C27.9981 7.78681 27.383 6.30416 26.2894 5.2106C25.1958 4.11703 23.7132 3.50186 22.1667 3.50001ZM5.83333 3.50001H8.78267C8.9631 3.49881 9.14144 3.53871 9.30417 3.61667L12.9862 5.45884C13.4717 5.70289 14.0072 5.83108 14.5507 5.83334H22.1667C22.8644 5.83448 23.5458 6.04412 24.1235 6.43535C24.7012 6.82659 25.1488 7.38155 25.4088 8.02901L2.33333 8.15967V7.00001C2.33333 6.07175 2.70208 5.18151 3.35846 4.52513C4.01484 3.86875 4.90508 3.50001 5.83333 3.50001ZM22.1667 24.5H5.83333C4.90508 24.5 4.01484 24.1313 3.35846 23.4749C2.70208 22.8185 2.33333 21.9283 2.33333 21V10.493L25.6667 10.3612V21C25.6667 21.9283 25.2979 22.8185 24.6415 23.4749C23.9852 24.1313 23.0949 24.5 22.1667 24.5Z" fill="white" fill-opacity="0.6"/>
</g>
<defs>
<clipPath id="clip0_3_4">
<rect width="28" height="28" fill="white"/>
</clipPath>
</defs>
</svg>
